# xmcd
#
# Track frame offsets: 
#        183
#        19055
#        36823
#        57030
#        73225
#        97663
#        114895
#        134338
#        148800
#        169980
#        183965
#        196348
#        223848
#        234125
#        253295
#        266850
#
# Disc length: 3837 seconds
#
# Revision: 9
# Processed by: cddbd v1.5.2PL0 Copyright (c) Steve Scherf et al.
# Submitted via: ExactAudioCopyFreeDBPlugin 1.0
#
DISCID=e90efb10
DTITLE=Various Artist - I Love The Blues CD1
DYEAR=1992
DGENRE=Blues
TTITLE0=Gary Moore - Still Got The Blues (For You)
TTITLE1=Muddy Waters - Mannish Boy
TTITLE2=Buddy Guy - Damn Right, I've Got The Blues
TTITLE3=B.B. King - Ain't Nobody Home
TTITLE4=The Blues Band - Fat City
TTITLE5=Etta James - Whatever Gets You Through The Night
TTITLE6=Taj Mahal - Don't Call Us
TTITLE7=Willie Dixon - I Love The Life I Live
TTITLE8=Buddy Guy - Mustang Sally
TTITLE9=Billie Holiday - What Is This Thing Called Love
TTITLE10=Bo Diddley - Bo Diddely
TTITLE11=Albert Collins - Cold Cuts
TTITLE12=John Mayall and Bluesbreakers - I Want To Go
TTITLE13=B.B. King - I'm Movin On
TTITLE14=John Lee Hooker - One Bourbon, One Scotch, One Beer
TTITLE15=Dana Gillespie - Where Blues Begins
EXTD=ID3G: 0
EXTT0=Gary Moore
EXTT1=Muddy Waters
EXTT2=Buddy Guy
EXTT3=B.B. King
EXTT4=The Blues Band
EXTT5=Etta James
EXTT6=Taj Mahal
EXTT7=Willie Dixon
EXTT8=Buddy Guy
EXTT9=Billie Holiday
EXTT10=Bod Diddely
EXTT11=Albert Collins
EXTT12=John Mayall and The Blues Breakers
EXTT13=B.B. King
EXTT14=John Lee Hooker
EXTT15=Dana Gillespie
PLAYORDER=
